<?xml version="1.0" standalone="no"?>
<!DOCTYPE svg PUBLIC "-//W3C//DTD SVG 20010904//EN"
 "http://www.w3.org/TR/2001/REC-SVG-20010904/DTD/svg10.dtd">
<svg version="1.0" xmlns="http://www.w3.org/2000/svg"
 width="1024.000000pt" height="1024.000000pt" viewBox="0 0 1024.000000 1024.000000"
 preserveAspectRatio="xMidYMid meet">
<metadata>
Created by potrace 1.14, written by Peter Selinger 2001-2017
</metadata>
<g transform="translate(0.000000,1024.000000) scale(0.100000,-0.100000)"
fill="#000000" stroke="none">
<path d="M5560 8532 c-18 -9 -42 -30 -51 -47 -15 -25 -93 -275 -119 -380 -4
-16 -43 -149 -85 -295 -43 -146 -84 -285 -90 -310 -7 -25 -42 -146 -78 -270
-36 -124 -103 -351 -147 -505 -45 -154 -86 -293 -90 -310 -29 -103 -75 -266
-125 -435 -32 -107 -61 -208 -65 -225 -5 -16 -24 -84 -43 -150 -20 -66 -70
-239 -112 -385 -42 -146 -92 -319 -112 -385 -71 -244 -105 -362 -122 -425 -10
-36 -49 -168 -86 -295 -69 -239 -97 -334 -239 -825 -195 -677 -246 -853 -291
-1005 -54 -180 -61 -250 -30 -285 32 -35 9 -27 415 -150 315 -95 520 -150 556
-150 40 0 82 23 111 60 15 20 43 109 159 510 91 316 127 441 311 1075 103 355
97 335 137 475 20 69 38 132 40 140 3 8 29 101 59 205 31 105 76 260 100 345
47 160 125 428 252 870 40 140 85 293 98 340 14 47 69 236 122 420 53 184 101
349 106 365 12 37 129 444 134 465 2 8 70 242 151 520 208 716 203 694 171
744 -29 43 4 32 -672 232 -327 97 -309 93 -365 66z"/>
<path d="M2904 7084 c-20 -7 -55 -30 -77 -51 -22 -21 -52 -49 -66 -63 -15 -14
-83 -77 -152 -141 -68 -64 -140 -131 -159 -149 -19 -18 -69 -64 -111 -104 -41
-39 -109 -102 -150 -141 -41 -38 -139 -130 -217 -204 -79 -74 -153 -143 -165
-153 -12 -11 -53 -49 -92 -86 -98 -93 -344 -324 -376 -353 -302 -277 -477
-450 -485 -482 -13 -55 4 -94 70 -159 52 -52 256 -245 357 -339 52 -47 273
-255 318 -298 25 -24 97 -91 160 -150 63 -58 137 -128 165 -154 28 -27 102
-97 165 -155 160 -149 171 -160 311 -292 69 -65 141 -132 160 -150 19 -18 91
-85 158 -149 135 -126 183 -161 224 -161 64 0 75 9 313 266 61 65 124 133 140
150 60 64 231 248 253 273 55 62 63 112 26 169 -19 30 -20 31 -129 127 -44 38
-87 76 -96 85 -9 8 -29 26 -45 40 -74 64 -270 235 -274 240 -6 6 -154 137
-199 176 -19 16 -42 36 -51 44 -8 8 -88 78 -175 155 -88 77 -179 157 -201 178
-23 21 -50 45 -60 52 -18 14 -17 17 21 52 38 36 111 100 235 208 30 26 87 76
125 110 39 34 88 77 110 96 22 19 45 39 50 45 6 5 64 57 130 115 66 57 122
106 125 109 6 6 141 124 189 166 19 16 44 38 56 49 13 11 53 47 90 80 91 80
93 82 110 116 18 33 12 81 -13 120 -9 15 -66 80 -127 144 -60 65 -123 132
-139 149 -131 142 -263 283 -326 347 -82 83 -111 95 -176 73z"/>
<path d="M7283 7085 c-23 -7 -52 -24 -65 -37 -13 -14 -67 -73 -121 -130 -127
-137 -147 -159 -292 -313 -218 -232 -235 -254 -235 -307 0 -50 22 -76 168
-205 280 -246 337 -296 401 -352 36 -31 72 -63 81 -71 9 -8 50 -44 91 -80 41
-35 76 -67 79 -70 3 -3 39 -34 80 -70 41 -36 77 -67 80 -70 3 -3 61 -55 130
-115 69 -60 133 -117 143 -126 17 -16 17 -18 -14 -45 -18 -16 -42 -38 -54 -49
-12 -11 -55 -49 -96 -85 -41 -36 -79 -69 -85 -75 -6 -5 -22 -19 -35 -30 -21
-19 -258 -226 -334 -294 -16 -15 -68 -60 -115 -101 -83 -73 -141 -125 -164
-145 -6 -6 -45 -39 -86 -75 -41 -36 -84 -74 -95 -85 -12 -11 -50 -44 -84 -74
-69 -60 -91 -94 -91 -141 0 -29 14 -68 29 -80 3 -3 31 -32 61 -65 30 -33 110
-119 176 -190 67 -72 136 -146 154 -165 265 -286 281 -300 355 -286 45 9 70
30 407 350 19 17 96 90 173 161 76 72 155 146 176 165 20 20 79 74 130 122 52
48 119 110 150 140 55 53 273 257 339 318 19 18 93 87 164 154 70 66 140 132
155 146 173 161 300 281 325 308 42 45 58 87 50 130 -8 42 -48 83 -380 392
-38 36 -131 122 -205 193 -75 70 -147 136 -160 148 -13 11 -58 53 -99 92 -42
40 -109 104 -150 142 -77 72 -184 172 -326 305 -44 41 -114 107 -155 145 -201
188 -371 347 -441 414 -117 111 -147 126 -215 106z"/>
</g>
</svg>
